<!-- icon666.com - MILLIONS vector ICONS FREE --><svg viewBox="0 0 32 32" xmlns="http://www.w3.org/2000/svg" xmlns:xlink="http://www.w3.org/1999/xlink"><linearGradient id="SVGID_1_" gradientUnits="userSpaceOnUse" x1="16" x2="16" y1="1" y2="31"><stop offset="0" stop-color="#00bcd4"></stop><stop offset="1" stop-color="#1976d2"></stop></linearGradient><g id="download"><path d="m16 1c-8.2841797 0-15 6.7158203-15 15s6.7158203 15 15 15 15-6.7158203 15-15-6.7158203-15-15-15zm6 23c0 1.1025391-.8974609 2-2 2h-8c-1.1025391 0-2-.8974609-2-2v-1.3330078c0-.3691406.2978516-.6669922.6669922-.6669922.3681641 0 .6660156.2978516.6660156.6669922v1.3330078c0 .3681641.2988281.6669922.6669922.6669922h8c.3681641 0 .6669922-.2988281.6669922-.6669922v-1.3330078c0-.3691406.2978516-.6669922.6660156-.6669922.3691406 0 .6669922.2978516.6669922.6669922zm-4.4716797-3.8046875c.2607422-.2607422.6826172-.2607422.9433594 0 .2597656.2607422.2597656.6826172 0 .9423828l-2 2c-.1308594.1308594-.3007813.1953125-.4716797.1953125s-.3408203-.0644531-.4716797-.1953125l-2-2c-.2597656-.2597656-.2597656-.6816406 0-.9423828.2607422-.2607422.6826172-.2607422.9433594 0l.8613281.8623047v-7.0576172c0-.3681641.2988281-.6669922.6669922-.6669922s.6669922.2988281.6669922.6669922v7.0576172zm3.8046875-1.5283203h-2.6660156c-.3691406 0-.6669922-.2988281-.6669922-.6669922s.2978516-.6669922.6669922-.6669922h2.6660156c1.8378906 0 3.3339844-1.4951172 3.3339844-3.3330078s-1.4960938-3.3330078-3.3339844-3.3330078c-.5839844 0-1.1621094.15625-1.6708984.453125-.2021484.1191406-.4521484.1201172-.6591797.0058594-.2050781-.1132813-.3359375-.3271484-.3427734-.5625-.0546875-1.8105469-1.5166016-3.2304688-3.3271484-3.2304688-1.8378907 0-3.3330079 1.4960938-3.3330079 3.3339844 0 .2753906.0380859.5625.1142578.8525391.0664063.2529297-.0205078.5205078-.2226563.6855469-.2021484.1660156-.484375.1962891-.7167969.0810547-.3847655-.1894532-.7802733-.2861329-1.1748046-.2861329-1.4707031 0-2.6669922 1.1962891-2.6669922 2.6669922s1.1962891 2.6660156 2.6669922 2.6660156h3.3330078c.3691406 0 .6669922.2988281.6669922.6669922s-.2978516.6669922-.6669922.6669922h-3.3330078c-2.2060547 0-4-1.7949219-4-4 0-2.2060547 1.7939453-4 4-4 .2236328 0 .4462891.0195313.6669922.0585938 0-.0195313 0-.0390625 0-.0585938 0-2.5732422 2.09375-4.6669922 4.6660156-4.6669922 2.2089844 0 4.046875 1.5068359 4.5351563 3.5712891.4716797-.15625.9667969-.2382813 1.4648438-.2382813 2.5732421 0 4.6669921 2.09375 4.6669921 4.6669922s-2.09375 4.6669922-4.6669922 4.6669922z" fill="url(#SVGID_1_)"></path></g></svg>